<svg width="117" height="129" xmlns="http://www.w3.org/2000/svg" xmlns:xlink="http://www.w3.org/1999/xlink"> 
<defs> 
<path id="a" d="M116.905.28H0v127.785h116.905V.281z"></path> 
</defs> 
<g fill="none" fill-rule="evenodd"> 
<path d="M58 33c-20.434 0-37 16.75-37 37.414C21 86.016 30.446 99.386 43.87 105a28.661 28.661 0 0 1-2.13-9.589A30.014 30.014 0 0 1 28.4 70.414C28.4 53.91 41.68 40.483 58 40.483c1.806 0 3.574.165 5.291.48a60.257 60.257 0 0 1 6.504-6.021A36.583 36.583 0 0 0 58 33m15.85 71.23a37.255 37.255 0 0 0 14.335-12.175 59.322 59.322 0 0 1-8.396-1.404 29.924 29.924 0 0 1-6.078 5.12c.514 2.937.54 5.812.139 8.46m19.924-24.24A37.856 37.856 0 0 0 95 70.415c0-11.77-5.375-22.267-13.777-29.125a60.853 60.853 0 0 1-3.232 7.072A30.009 30.009 0 0 1 87.6 70.414c0 1.86-.17 3.681-.493 5.449a59.73 59.73 0 0 1 6.667 4.129m-8.722 2.566c-.298.676-.62 1.339-.965 1.987 1.747.329 3.511.57 5.287.721a52.927 52.927 0 0 0-4.322-2.708M70.57 43.32a29.66 29.66 0 0 1 1.866.973 53.979 53.979 0 0 0 1.977-4.281 53.153 53.153 0 0 0-3.843 3.308" fill="#39491C"></path> 
<path d="M55 72.218c16.195-1.435 32.358 4.259 44 15.564-16.201 1.434-32.362-4.256-44-15.564" fill="#39491C"></path> 
<mask id="b" fill="#fff"> 
<use xlink:href="#a"></use> 
</mask> 
<path d="M46.662 99.515c-2.462-9.077.54-17.835 6.715-20.042-1.191-3.136-3.763-6.169-4.946-7.461-4.007.777-8.004 1.345-11.137 1.347-3.425 0-.038-2.293-.038-2.293s15.999.387 25.863-4.686c9.863-5.073 2.797 1.258 2.797 1.258s-7.74 2.368-15.908 4.058c1.356 1.864 3.79 5.793 4.778 7.4 6.464-1.175 13.491 4.91 15.95 13.99 2.558 9.416-.765 18.489-7.417 20.261-6.647 1.783-14.102-4.414-16.657-13.832zm10.029-12.57c-1.509-1.458-1.902-3.49-.87-4.548 1.028-1.07 3.088-.752 4.597.694 1.508 1.457 1.898 3.49.868 4.552-1.032 1.07-3.088.76-4.595-.698zM28.31 28.426c.384-.29.712-.602.982-.93.266-.326.481-.675.643-1.045v-.002c.165-.375.282-.763.35-1.163a5.37 5.37 0 0 0 .061-1.251 7.097 7.097 0 0 0-.223-1.342 9.234 9.234 0 0 0-.504-1.416 12.035 12.035 0 0 0-.78-1.456c-.303-.486-.65-.97-1.036-1.451-.385-.479-.78-.917-1.186-1.312-.405-.395-.822-.75-1.25-1.064a9.225 9.225 0 0 0-1.272-.792 7.26 7.26 0 0 0-1.267-.51 5.7 5.7 0 0 0-1.251-.22 5.41 5.41 0 0 0-1.243.068c-.41.07-.813.194-1.206.37a6.075 6.075 0 0 0-1.171.705 6.19 6.19 0 0 0-1.01.943 4.654 4.654 0 0 0-.667 1.041v.003a4.94 4.94 0 0 0-.456 2.36c.02.428.088.863.2 1.304.114.446.278.905.489 1.376.215.477.47.952.767 1.424.299.477.642.956 1.03 1.436.389.485.79.93 1.2 1.335.405.4.827.765 1.26 1.093.428.323.857.599 1.287.826.43.227.862.408 1.294.542a5.8 5.8 0 0 0 1.277.248h.002c.427.034.85.018 1.264-.046.412-.064.82-.185 1.223-.363a6.01 6.01 0 0 0 1.192-.711zm67.086-5.34l.064.096c.105.158.215.316.326.471a4.79 4.79 0 0 0 .735.814c.221.195.445.363.67.501h.002a3.398 3.398 0 0 0 1.303.479 2.937 2.937 0 0 0 1.228-.083v-.002c.195-.057.39-.135.58-.235v.001c.194-.102.38-.222.555-.357.178-.135.348-.29.51-.46.19-.203.356-.412.492-.625a3.37 3.37 0 0 0 .323-.641l-.001-.001c.084-.228.144-.45.178-.665a3 3 0 0 0 .033-.645v-.003a2.932 2.932 0 0 0-.102-.626 3.286 3.286 0 0 0-.244-.623 3.646 3.646 0 0 0-.377-.586 4.023 4.023 0 0 0-.5-.528v-.001l-1.236-1.094-4.54 4.812zm3.505-9.006l4.332 3.84c.378.335.723.682 1.031 1.039.315.364.594.736.835 1.116h-.001c.247.389.453.78.618 1.172.168.399.294.8.379 1.201.085.407.123.814.116 1.22-.008.41-.063.813-.164 1.206h-.002a4.666 4.666 0 0 1-.481 1.175c-.215.374-.483.73-.801 1.068-.315.334-.651.62-1.006.853-.36.237-.735.42-1.125.546-.38.122-.764.205-1.149.246a5.51 5.51 0 0 1-1.163.001 6.485 6.485 0 0 1-1.143-.227 7.17 7.17 0 0 1-1.112-.43 8.799 8.799 0 0 1-1.977-1.317v-.002c-.14-.124-.266-.238-.374-.338l-.002-.003a18.352 18.352 0 0 1-.374-.36l-.002-.003a30.93 30.93 0 0 1-1.047-1.086v-.002a19.891 19.891 0 0 1-.296-.335l-.04-.046-5.473 5.8-.362.385-.394-.35-2.296-2.036-.422-.373.385-.408 12.753-13.518.362-.383.395.349zM71.186 1.208l2.987 1.064.32.114.04.338 1.676 14.68 10.96-10.2.242-.225.31.11 2.935 1.045.525.187-.197.52-6.51 17.195-.19.5-.5-.178-2.936-1.044-.525-.186.197-.52 4.587-12.114-10.934 10.135-.243.225-.307-.11-.597-.212-.321-.115-.04-.338-1.723-14.795-4.65 12.285-.19.5-.501-.178-1.288-.458-.526-.187.197-.52L70.495 1.53l.19-.5.501.178zm-21.062.158l6.486 8.28L62.042.695 62.19.45l.287-.017 1.68-.095L65.19.281l-.538.887-6.46 10.638.466 7.737.033.546-.547.03-3.108.175-.54.031-.033-.543-.449-7.441L46.09 2.22l-.644-.823 1.043-.059 3.177-.18.283-.015.175.223zM33.192 5.133l2.972-.897.51-.154.164.51 5.088 15.844 8.392-2.532.509-.154.164.51.366 1.136.17.53-.533.16-11.874 3.583-.51.153-.163-.51-5.617-17.49-.17-.529.532-.16zm-3.64 24.893c-.39.295-.797.563-1.22.804-.418.239-.85.448-1.292.626a11.183 11.183 0 0 1-2.685.725 10.791 10.791 0 0 1-4.065-.204 10.495 10.495 0 0 1-1.287-.404h-.002a10.615 10.615 0 0 1-2.386-1.287 9.937 9.937 0 0 1-1.072-.881 10.66 10.66 0 0 1-.96-1.042 9.975 9.975 0 0 1-1.116-1.718h-.003a9.211 9.211 0 0 1-.707-1.869 9.603 9.603 0 0 1-.21-3.876 9.97 9.97 0 0 1 .484-1.902c.225-.622.513-1.23.863-1.823a10.34 10.34 0 0 1 1.242-1.683 11.523 11.523 0 0 1 1.597-1.455 11.737 11.737 0 0 1 1.845-1.147 10.81 10.81 0 0 1 1.98-.755h.002a11.64 11.64 0 0 1 2.026-.366 10.8 10.8 0 0 1 2.011.01v.001a10.377 10.377 0 0 1 3.807 1.134 9.626 9.626 0 0 1 1.692 1.12 10.342 10.342 0 0 1 2.249 2.616c.234.39.442.8.623 1.227.178.421.326.847.445 1.274a9.8 9.8 0 0 1 .272 3.936 9.935 9.935 0 0 1-.703 2.569c-.174.41-.378.814-.61 1.21-.233.394-.491.777-.775 1.146-.286.371-.6.726-.941 1.062-.344.338-.712.656-1.104.952zM13.68 46.579l-.737 1.693-2.769-1.21 1.444 4.257-.567 1.303-1.623-4.792-6.15 2.496.888-2.041 4.56-1.855-3.154-1.378.736-1.692 7.372 3.22zM2.323 55.984c-.085.355-.074.69.034 1.004.108.313.294.6.56.857.265.258.599.485 1 .682.402.197.854.355 1.356.477a6.3 6.3 0 0 0 1.388.185c.436.005.823-.048 1.163-.16.34-.112.625-.284.856-.516.23-.232.389-.526.474-.881.087-.36.08-.695-.02-1.007a2.125 2.125 0 0 0-.528-.85 3.536 3.536 0 0 0-.964-.67 6.389 6.389 0 0 0-1.32-.465 6.687 6.687 0 0 0-1.424-.197c-.446-.01-.846.04-1.2.148-.353.109-.65.278-.888.509-.238.23-.4.525-.487.884zm-.666-.16c.142-.588.375-1.11.701-1.567a4.103 4.103 0 0 1 1.173-1.113 4.067 4.067 0 0 1 1.522-.565 4.361 4.361 0 0 1 1.744.08c.592.143 1.109.381 1.552.714.443.334.797.73 1.061 1.189.265.459.434.965.51 1.519a4.629 4.629 0 0 1-.1 1.711 4.712 4.712 0 0 1-.404 1.091 4.363 4.363 0 0 1-.625.906c-.242.268-.511.5-.81.694a3.819 3.819 0 0 1-.957.451c-.34.106-.698.165-1.071.176a4.303 4.303 0 0 1-1.144-.123 4.75 4.75 0 0 1-1.136-.427 4.181 4.181 0 0 1-.915-.655 3.85 3.85 0 0 1-.67-.844 4.03 4.03 0 0 1-.417-.99 4.291 4.291 0 0 1-.15-1.092 4.744 4.744 0 0 1 .136-1.156zm6.795 8.183L8.4 65.18 3.1 69.219l5.111.228-.05 1.152L0 70.234l.036-.794 5.845-4.383-5.513-.246.051-1.163 8.033.359zM.425 75.894a3.75 3.75 0 0 1 .04-1.189c.076-.347.2-.65.375-.904a2.28 2.28 0 0 1 .65-.636c.26-.17.548-.297.865-.384l.136 1.269a2.53 2.53 0 0 0-.535.252c-.162.102-.3.225-.413.369a1.454 1.454 0 0 0-.252.491c-.055.184-.07.393-.044.627.017.155.051.307.103.456.053.148.125.278.218.39a.926.926 0 0 0 .341.259c.136.06.297.08.484.06.239-.026.444-.105.615-.238.17-.133.321-.301.453-.505.13-.204.25-.432.355-.683.106-.251.211-.51.315-.775.105-.264.217-.523.337-.776.119-.253.258-.483.417-.69a2.23 2.23 0 0 1 .555-.516 1.7 1.7 0 0 1 .758-.253c.318-.035.62-.002.905.099.284.1.539.262.764.485.226.224.415.508.566.851.152.344.253.742.301 1.195.04.374.021.72-.057 1.036a2.694 2.694 0 0 1-.994 1.515c-.243.187-.512.34-.805.458l-.124-1.152a4.38 4.38 0 0 0 .518-.29c.162-.104.301-.23.419-.373.118-.145.204-.312.26-.502.056-.19.07-.41.044-.663a1.629 1.629 0 0 0-.164-.59 1.137 1.137 0 0 0-.296-.368.952.952 0 0 0-.37-.18 1.16 1.16 0 0 0-.383-.025 1.018 1.018 0 0 0-.563.238 2.13 2.13 0 0 0-.434.517c-.128.21-.247.443-.356.702-.11.26-.218.525-.328.8-.11.272-.227.538-.351.8a4.185 4.185 0 0 1-.428.71c-.16.213-.344.389-.55.529a1.553 1.553 0 0 1-.728.256c-.322.035-.63.005-.925-.09a2.057 2.057 0 0 1-.792-.481 2.745 2.745 0 0 1-.588-.862 4.043 4.043 0 0 1-.314-1.239zm10.213 9.452l-.664.167-.632-2.512-7.134 1.803-.448-1.78 7.133-1.803-.634-2.518.664-.168 1.715 6.81zm-4.062 3.501l.834 2.095 1.997-1.998-2.831-.097zm5.582-.22l-6.331 6.31-.694-1.74 1.694-1.69-1.077-2.703-2.404-.093-.463-1.164 8.982.342.293.738zm1.767 4.45l.613 1.002-2.134 6.32 4.362-2.68.601.982-6.962 4.279-.415-.678 2.392-6.911-4.705 2.89-.607-.992 6.855-4.213zm8.807 12.053l-.519.448-1.688-1.963-5.572 4.814-1.196-1.39 5.572-4.814-1.693-1.966.519-.449 4.577 5.32zm-1.186 8.982c.28.234.585.372.914.414.328.042.667 0 1.015-.123a3.876 3.876 0 0 0 1.053-.597 6.63 6.63 0 0 0 1.026-1.008 6.28 6.28 0 0 0 .78-1.166 3.59 3.59 0 0 0 .372-1.116c.05-.355.022-.686-.083-.997a1.827 1.827 0 0 0-.58-.816 1.833 1.833 0 0 0-.91-.427 2.12 2.12 0 0 0-.993.098c-.34.114-.681.304-1.026.57a6.407 6.407 0 0 0-1 .98c-.332.398-.6.796-.807 1.193-.206.397-.339.778-.398 1.143-.06.366-.039.707.061 1.023.101.316.293.593.576.83zm-.438.527a4.44 4.44 0 0 1-1.092-1.323 4.117 4.117 0 0 1-.477-1.545 4.09 4.09 0 0 1 .168-1.619 4.396 4.396 0 0 1 .844-1.531c.39-.469.831-.828 1.326-1.079a3.934 3.934 0 0 1 1.532-.427 4.107 4.107 0 0 1 1.586.214c.528.178 1.024.46 1.487.847.309.258.575.54.798.846.223.306.4.627.534.962.132.336.22.68.262 1.035a3.83 3.83 0 0 1-.02 1.06c-.055.353-.16.7-.315 1.04a4.32 4.32 0 0 1-.617.974 4.795 4.795 0 0 1-.885.832 4.2 4.2 0 0 1-.99.531 3.827 3.827 0 0 1-1.053.23c-.36.027-.716.006-1.07-.063a4.307 4.307 0 0 1-1.043-.35 4.76 4.76 0 0 1-.975-.634zm9.822 1.56l.522.302c.178.101.354.156.529.161.175.006.342-.025.5-.093.16-.067.307-.168.441-.302a2.15 2.15 0 0 0 .351-.46c.12-.209.198-.412.233-.609a1.442 1.442 0 0 0 0-.55 1.12 1.12 0 0 0-.208-.462 1.299 1.299 0 0 0-.39-.338l-.474-.273-1.504 2.624zm.295-4.223l2.261 1.302c.366.21.682.448.95.714.27.265.473.548.613.845.14.299.208.61.201.931a2.031 2.031 0 0 1-.291.974c-.19.33-.42.58-.694.75a2.146 2.146 0 0 1-.876.31c-.312.038-.631.018-.957-.061a3.497 3.497 0 0 1-.926-.37l-.939-.54-1.75 3.052-1.598-.92 4.006-6.987zm7.434 12.025c.342.126.676.154.999.082a2.18 2.18 0 0 0 .914-.459 3.88 3.88 0 0 0 .791-.919c.24-.377.45-.808.627-1.294.174-.475.288-.929.343-1.361a3.594 3.594 0 0 0-.025-1.176 2.126 2.126 0 0 0-.414-.911 1.826 1.826 0 0 0-.82-.573 1.824 1.824 0 0 0-1-.095c-.32.064-.621.207-.903.428-.281.222-.539.516-.774.883-.235.366-.44.787-.613 1.262-.177.486-.297.95-.357 1.393-.061.444-.058.848.009 1.212s.2.678.402.942c.2.264.474.46.82.586zm-.236.645a4.454 4.454 0 0 1-1.472-.877 4.133 4.133 0 0 1-.97-1.295 4.088 4.088 0 0 1-.386-1.58 4.395 4.395 0 0 1 .28-1.727c.21-.572.505-1.06.886-1.463a3.934 3.934 0 0 1 1.3-.92 4.09 4.09 0 0 1 1.564-.333 4.575 4.575 0 0 1 1.685.295 4.71 4.71 0 0 1 1.036.527c.312.213.588.455.826.726.238.27.436.566.595.885.16.32.272.654.338 1.005.066.351.083.713.052 1.086-.031.373-.116.748-.254 1.125-.146.4-.33.76-.552 1.082-.223.322-.474.6-.755.835-.28.235-.584.425-.914.572a4.019 4.019 0 0 1-1.028.301 4.252 4.252 0 0 1-1.1.023 4.763 4.763 0 0 1-1.13-.267zm8.904-5.816l1.815.284-.8 5.12c-.048.309-.05.605-.003.888a2.2 2.2 0 0 0 .27.768 1.77 1.77 0 0 0 1.288.873 1.759 1.759 0 0 0 1.484-.438 2.21 2.21 0 0 0 .49-.648c.13-.256.22-.539.267-.847l.8-5.12 1.137.18-.8 5.118c-.064.413-.19.79-.375 1.135a2.558 2.558 0 0 1-.757.864 2.939 2.939 0 0 1-1.165.488c-.457.092-.989.092-1.596-.004-.54-.085-1.006-.24-1.397-.466-.39-.226-.704-.5-.94-.82a2.807 2.807 0 0 1-.484-1.066 3.247 3.247 0 0 1-.032-1.208l.798-5.1zm39.564 1.982c-.391.217-.76.359-1.11.425a2.548 2.548 0 0 1-.977.007 2.28 2.28 0 0 1-.838-.352 3.074 3.074 0 0 1-.69-.65l1.115-.619c.135.153.282.285.439.395.157.11.323.19.5.238a1.45 1.45 0 0 0 1.143-.162c.137-.076.263-.167.38-.272a1.26 1.26 0 0 0 .273-.353.921.921 0 0 0 .104-.417.927.927 0 0 0-.133-.47 1.187 1.187 0 0 0-.458-.474 2.022 2.022 0 0 0-.64-.222 4.472 4.472 0 0 0-.766-.062c-.273 0-.55.005-.835.01a12.72 12.72 0 0 1-.845-.007 3.716 3.716 0 0 1-.796-.117 2.223 2.223 0 0 1-.69-.311 1.703 1.703 0 0 1-.529-.6 2.04 2.04 0 0 1-.26-.875c-.02-.301.03-.6.148-.895.117-.295.305-.579.562-.853.256-.274.583-.522.98-.743.329-.183.654-.3.975-.35a2.678 2.678 0 0 1 1.78.327c.267.152.512.34.735.565l-1.01.563a4.358 4.358 0 0 0-.469-.366 1.815 1.815 0 0 0-.507-.24 1.413 1.413 0 0 0-.562-.045 1.68 1.68 0 0 0-.627.218 1.611 1.611 0 0 0-.479.38 1.131 1.131 0 0 0-.222.416.95.95 0 0 0-.02.412c.022.134.064.255.124.364.105.19.251.332.439.427.187.096.401.162.643.199.243.037.504.056.785.055.281 0 .568-.003.861-.008.294-.005.585 0 .874.012.288.014.562.054.819.119.257.065.491.166.7.301.21.136.384.326.52.572.157.284.25.58.275.889.027.308-.017.615-.132.918a2.758 2.758 0 0 1-.564.878c-.26.283-.6.54-1.015.773zm2.76-2.601a.864.864 0 0 1-.136-.606.77.77 0 0 1 .105-.28.726.726 0 0 1 .496-.328.769.769 0 0 1 .582.137c.089.062.163.14.225.234a.86.86 0 0 1 .128.301.802.802 0 0 1-.104.588.728.728 0 0 1-.793.316.826.826 0 0 1-.504-.362zm2.763-4.707l1.745-1.424-2.5-1.313.755 2.737zm-1.88-5.273l7.903 4.167-1.45 1.184-2.116-1.114-2.251 1.839.63 2.325-.97.793-2.36-8.69.614-.504zm8.097 2.849a.879.879 0 0 1-.182-.268.81.81 0 0 1-.07-.3.76.76 0 0 1 .048-.294.736.736 0 0 1 .72-.47.788.788 0 0 1 .3.07.86.86 0 0 1 .266.184.86.86 0 0 1 .185.27.788.788 0 0 1 .013.597.714.714 0 0 1-.17.258.702.702 0 0 1-.252.162.744.744 0 0 1-.292.047.832.832 0 0 1-.566-.256zm3.858-6.736c-.13.164-.284.293-.463.386a1.56 1.56 0 0 1-.558.174 1.539 1.539 0 0 1-1.12-.329 1.522 1.522 0 0 1-.394-.462 1.543 1.543 0 0 1-.145-1.143c.051-.196.14-.376.27-.54.13-.164.284-.292.461-.385a1.55 1.55 0 0 1 .56-.168c.194-.02.39-.003.584.05.195.052.375.144.541.276a1.546 1.546 0 0 1 .532 1.604 1.417 1.417 0 0 1-.268.537zm6.777-6.55c.089-.16.152-.33.19-.51.038-.179.044-.355.02-.526a1.242 1.242 0 0 0-.173-.48 1.06 1.06 0 0 0-.4-.37 1.184 1.184 0 0 0-.643-.16 2.18 2.18 0 0 0-.673.148c-.23.088-.462.204-.697.348-.236.145-.476.293-.72.445-.245.152-.492.296-.742.433-.25.135-.502.242-.755.315-.254.074-.51.106-.77.094a1.774 1.774 0 0 1-.782-.237 2.207 2.207 0 0 1-.654-.542 1.88 1.88 0 0 1-.362-.73 2.13 2.13 0 0 1-.025-.872c.05-.31.17-.634.355-.97.169-.303.353-.555.555-.754.202-.199.42-.351.651-.457.233-.105.484-.165.753-.18.269-.014.553.01.852.074l-.034.705a3.18 3.18 0 0 0-.716-.076 2.02 2.02 0 0 0-.645.11c-.2.069-.385.175-.554.318a1.989 1.989 0 0 0-.443.557c-.112.202-.18.396-.202.582a1.33 1.33 0 0 0 .028.508 1.126 1.126 0 0 0 .54.694c.181.101.377.142.584.12.209-.02.427-.079.654-.174.227-.095.462-.217.707-.365l.745-.452c.253-.155.508-.302.767-.441.258-.14.516-.25.775-.328.259-.078.515-.115.768-.11.254.005.502.074.744.209.273.151.502.342.689.572.186.23.316.49.388.782.071.291.08.61.024.954-.056.345-.19.708-.4 1.09-.17.306-.36.56-.568.762a2.354 2.354 0 0 1-.674.467 2.297 2.297 0 0 1-.771.196 3.35 3.35 0 0 1-.858-.052l.066-.725c.26.06.51.081.75.065s.463-.065.67-.149c.206-.083.393-.2.561-.35.168-.15.31-.33.425-.538zm-5.255-6.246l.52-1.115 7.12 3.338-.52 1.115-7.12-3.338zm1.1-2.22l.23-.654 7.017-2.605.015-.042-5.417-1.921.18-.512 7.586 2.69-.095.27-7.76 2.763-.015.041 5.853 2.076-.184.523-7.41-2.628zm6.719-8.412a4.447 4.447 0 0 0 1.497.02 3.248 3.248 0 0 0 1.199-.444c.346-.218.628-.495.847-.83.218-.336.364-.717.437-1.143a1.817 1.817 0 0 0-.034-.761 2.79 2.79 0 0 0-.301-.724 3.862 3.862 0 0 0-1.069-1.143l.442-.447c.235.195.454.413.66.654a3.534 3.534 0 0 1 .81 1.785 3.63 3.63 0 0 1-.024 1.154 4.07 4.07 0 0 1-.598 1.58 3.88 3.88 0 0 1-1.085 1.107 3.98 3.98 0 0 1-1.421.59 4.278 4.278 0 0 1-1.6.025 4.339 4.339 0 0 1-1.948-.854 3.987 3.987 0 0 1-.728-.742c-.21-.28-.38-.585-.51-.915a4.097 4.097 0 0 1-.254-1.056 4.23 4.23 0 0 1 .042-1.168 3.3 3.3 0 0 1 .345-1.034 3.635 3.635 0 0 1 1.347-1.416c.275-.165.556-.3.842-.407l.29.588c-.34.097-.64.21-.897.339a2.864 2.864 0 0 0-.656.44 2.04 2.04 0 0 0-.652 1.215 2.803 2.803 0 0 0 .587 2.281c.26.322.594.598 1.002.825.409.228.885.388 1.43.48zm-2.785-13.239l.504.009-.066 3.86 2.81.048.044-2.585.51.01-.043 2.584 3.525.06.065-3.86.511.008-.087 5.092-7.86-.134.087-5.092zm7.385-5.262l-6.604.815.15 1.221-.334.042c-.059-.448-.194-.793-.405-1.036a1.774 1.774 0 0 0-.845-.524l-.07-.566 7.982-.985.126 1.033zm-5.047-6.005c-.17.012-.358.03-.563.057a6.91 6.91 0 0 0-.607.108c-.34.076-.654.188-.944.335a3.097 3.097 0 0 0-.73.502c-.198.188-.344.39-.437.606a1.017 1.017 0 0 0-.07.64c.049.219.144.395.284.528.141.132.309.23.503.294.195.064.405.094.63.094.226-.001.45-.027.672-.077a5.03 5.03 0 0 0 .923-.295c.274-.121.502-.264.685-.43a1.38 1.38 0 0 0 .385-.562c.074-.21.083-.444.025-.702a1.454 1.454 0 0 0-.11-.308c-.05-.107-.108-.21-.176-.31-.067-.1-.142-.191-.224-.274a1.574 1.574 0 0 0-.246-.206zm4.584 2.75a3.384 3.384 0 0 0-.61-1.1c-.277-.34-.6-.633-.968-.88a4.726 4.726 0 0 0-1.212-.576 4.218 4.218 0 0 0-1.34-.198c.104.099.204.2.3.306.094.104.184.218.266.34.083.124.156.257.219.402.063.145.115.306.155.484.07.314.066.61-.012.889a2.02 2.02 0 0 1-.39.756 2.516 2.516 0 0 1-.672.572c-.265.157-.55.27-.854.338a2.818 2.818 0 0 1-1.082.036 2.768 2.768 0 0 1-.97-.35 2.586 2.586 0 0 1-.752-.678 2.43 2.43 0 0 1-.428-.938 2.176 2.176 0 0 1 .02-1.043c.091-.345.249-.664.473-.955a3.3 3.3 0 0 1 .847-.764 3.553 3.553 0 0 1 1.145-.468 5.03 5.03 0 0 1 1.358-.121c.447.021.88.097 1.297.228a5.075 5.075 0 0 1 2.945 2.413c.212.39.37.81.47 1.262l-.205.046zm-9.34-7.999l.76 2.247 1.19.175a3.67 3.67 0 0 1-.2-1.297c.014-.435.102-.842.262-1.222.161-.38.391-.715.69-1.005a2.826 2.826 0 0 1 1.079-.652 2.594 2.594 0 0 1 1.16-.134c.391.044.76.162 1.107.356.346.194.656.453.93.78.273.326.482.703.627 1.13.066.195.107.38.121.553.015.175.007.33-.022.47a.902.902 0 0 1-.145.347.515.515 0 0 1-.255.193c-.133.045-.248.03-.345-.045a.624.624 0 0 1-.21-.304.737.737 0 0 1-.036-.384c.023-.118.052-.24.086-.366.033-.125.057-.261.07-.408a1.28 1.28 0 0 0-.08-.516 1.533 1.533 0 0 0-.36-.59 1.817 1.817 0 0 0-.571-.39 1.936 1.936 0 0 0-.704-.157 2.102 2.102 0 0 0-.766.115 1.934 1.934 0 0 0-.852.563 2.311 2.311 0 0 0-.483.935 3.705 3.705 0 0 0-.094 1.238c.035.459.142.95.32 1.473l-3.417-.498-.925-2.73 1.062.123zm1.648-3.59c.176-.049.351-.107.523-.172.174-.065.338-.134.494-.207.326-.154.623-.328.89-.521.267-.194.486-.4.656-.619.17-.218.28-.445.33-.681.05-.236.02-.472-.09-.709a.974.974 0 0 0-.347-.4 1.403 1.403 0 0 0-.537-.21 2.036 2.036 0 0 0-.655-.004 2.492 2.492 0 0 0-.705.218c-.296.14-.558.308-.784.506a2.833 2.833 0 0 0-.544.624c-.136.218-.22.44-.25.665-.033.225-.003.434.087.626.039.081.09.165.154.25.064.085.138.167.22.245.084.078.174.152.27.22.096.068.192.124.288.17zm-5.045-1.66c.226.38.516.706.867.98.352.273.74.488 1.166.644a4.741 4.741 0 0 0 2.695.168 4.362 4.362 0 0 1-.38-.223 2.57 2.57 0 0 1-.354-.282 3 3 0 0 1-.315-.353 2.474 2.474 0 0 1-.266-.446 1.91 1.91 0 0 1-.184-.832c.003-.287.058-.564.168-.83.11-.266.27-.511.485-.736.213-.224.466-.405.76-.543a2.848 2.848 0 0 1 2.109-.143c.33.107.627.272.894.497.267.224.476.499.628.823.162.344.236.696.222 1.055a2.563 2.563 0 0 1-.256 1.03 3.16 3.16 0 0 1-.674.91c-.291.28-.632.512-1.024.696a5.515 5.515 0 0 1-1.27.423c-.436.088-.868.12-1.295.1a4.845 4.845 0 0 1-1.252-.227 4.628 4.628 0 0 1-1.148-.554c-.36-.238-.69-.53-.988-.876a5.137 5.137 0 0 1-.768-1.197l.18-.084zM13.216 37.46c.183-.303.414-.555.693-.757.278-.202.576-.346.892-.433.316-.086.642-.111.977-.073.337.037.652.14.947.308.3.171.548.388.744.652a2.475 2.475 0 0 1 .463 1.831 2.49 2.49 0 0 1-.343.957 2.537 2.537 0 0 1-.69.753 2.723 2.723 0 0 1-1.876.503 2.402 2.402 0 0 1-1.69-.96 2.45 2.45 0 0 1-.409-.867 2.564 2.564 0 0 1-.05-.961c.044-.332.158-.65.342-.953zm89.782-.9a2.537 2.537 0 0 1 .327 1.918c-.071.31-.205.6-.4.868a2.36 2.36 0 0 1-.728.66 2.436 2.436 0 0 1-.945.324 2.656 2.656 0 0 1-1.883-.476 2.575 2.575 0 0 1-.705-.748 2.455 2.455 0 0 1-.355-.947 2.538 2.538 0 0 1 .039-.965c.076-.312.206-.604.396-.873.19-.27.434-.492.732-.666.292-.172.606-.278.943-.317.337-.04.664-.02.982.063.317.082.616.22.896.416.28.195.515.442.701.743zm-46.713 83.45l1.838-.03.116 7.232 3.814-.062.014.825-5.652.091-.13-8.056zm11.112 6.835c.36-.056.665-.193.914-.413.249-.218.442-.5.58-.844.137-.344.22-.74.25-1.186.029-.447.004-.926-.074-1.438a6.288 6.288 0 0 0-.357-1.357 3.572 3.572 0 0 0-.588-1.018 2.11 2.11 0 0 0-.801-.597 1.811 1.811 0 0 0-.994-.106c-.365.056-.672.19-.92.401-.252.211-.447.482-.586.812-.14.33-.224.712-.253 1.147a6.42 6.42 0 0 0 .071 1.401c.079.512.199.976.358 1.394.16.418.358.77.592 1.057.235.286.503.497.807.63.303.134.637.173 1.001.117zm.104.678a4.443 4.443 0 0 1-1.713-.056 4.112 4.112 0 0 1-1.472-.664 4.092 4.092 0 0 1-1.1-1.197 4.41 4.41 0 0 1-.586-1.649 4.198 4.198 0 0 1 .071-1.709c.14-.537.371-1.015.695-1.434.323-.42.726-.769 1.209-1.049a4.6 4.6 0 0 1 1.618-.557 4.69 4.69 0 0 1 1.161-.039c.376.036.734.114 1.073.237.34.122.655.284.948.486.293.202.553.441.78.717.227.275.416.584.57.926a4.77 4.77 0 0 1 .357 2.322c-.041.39-.127.756-.26 1.097a3.858 3.858 0 0 1-.524.942 4.006 4.006 0 0 1-.756.762 4.26 4.26 0 0 1-.952.552c-.349.147-.721.251-1.12.313zM52.459 68.999c3.625-16.215 14.237-30.153 28.949-37.927C77.78 47.292 67.17 61.23 52.458 69z" fill="#39491C" mask="url(#b)"></path> 
<path d="M77.771 124.796a4.086 4.086 0 0 1-1.202.204 2.77 2.77 0 0 1-.99-.165 2.381 2.381 0 0 1-.781-.48 2.982 2.982 0 0 1-.576-.732l1.244-.387c.11.168.232.318.37.449.138.132.292.235.461.312.168.077.352.123.548.137.198.013.41-.016.64-.087.152-.048.297-.111.434-.19a1.27 1.27 0 0 0 .344-.284.864.864 0 0 0 .185-.373.843.843 0 0 0-.046-.466 1.143 1.143 0 0 0-.374-.528 2.116 2.116 0 0 0-.606-.32 4.814 4.814 0 0 0-.764-.195 41.05 41.05 0 0 0-.846-.136 14.34 14.34 0 0 1-.853-.157 4.108 4.108 0 0 1-.784-.251 2.303 2.303 0 0 1-.64-.415 1.625 1.625 0 0 1-.42-.658 1.834 1.834 0 0 1-.1-.87c.039-.286.145-.558.32-.815.175-.257.418-.492.73-.704a4.25 4.25 0 0 1 1.133-.526A3.209 3.209 0 0 1 76.25 117c.335.01.647.068.94.175.29.108.556.257.798.447s.455.411.638.662l-1.129.351a4.455 4.455 0 0 0-.405-.427 1.868 1.868 0 0 0-.467-.316 1.537 1.537 0 0 0-.56-.141 1.868 1.868 0 0 0-.676.094 1.71 1.71 0 0 0-.556.274c-.139.11-.24.227-.304.352a.857.857 0 0 0-.1.384.989.989 0 0 0 .42.844c.173.122.378.223.615.301.239.078.5.141.784.19.284.05.575.098.873.144.298.047.592.103.88.167.29.064.56.149.807.256.25.107.467.242.653.407.186.165.325.375.416.63a1.882 1.882 0 0 1-.196 1.726c-.174.264-.42.507-.736.727a4.264 4.264 0 0 1-1.174.548" fill="#39491C"></path> 
</g> 
</svg>